# xmcd
#
# Track frame offsets:
#	150
#	11473
#	38456
#	58490
#	77798
#	99340
#	127975
#	147393
#	166050
#	185044
#	199909
#	219659
#	240987
#	261100
#
# Disc length: 3801 seconds
#
# Revision: 0
# Processed by: cddbd v1.5.1PL0 Copyright (c) Steve Scherf et al.
# Submitted via: audiograbber 1.83.01
#
DISCID=be0ed70e
DTITLE=Various Artist - The Best That Is Irish - CD1
DYEAR=2003
DGENRE=Celtic
TTITLE0=Clannad - Theme From Harrys Game
TTITLE1=The Fureys and Davey Arthur - Green Fields Of France
TTITLE2=Jim Mc Cann - Grace
TTITLE3=The Dubliners - Raglan Road
TTITLE4=The Wolfetones - The Streets Of New York
TTITLE5=Paddy Reilly - The Town I Loved So Well
TTITLE6=Phil Coulter - A Woman's Heart
TTITLE7=Meav - She Moved Thru The Fair
TTITLE8=Rua - Ride On
TTITLE9=The Fureys and Davey Arthur - The Lonesome Boatman
TTITLE10=Aoife - Danny Boy
TTITLE11=Paddy Reilly - The Rare Aul' Times
TTITLE12=Lisa - Carrickfergus
TTITLE13=Jim Mc Cann - Four Green Fields
EXTD=
EXTT0=
EXTT1=
EXTT2=
EXTT3=
EXTT4=
EXTT5=
EXTT6=
EXTT7=
EXTT8=
EXTT9=
EXTT10=
EXTT11=
EXTT12=
EXTT13=
PLAYORDER=
